<svg width="20" height="20" viewBox="0 0 20 20" fill="none" xmlns="http://www.w3.org/2000/svg">
    <g id="geo" transform="translate(0.000000,32.000000) scale(0.100000,-0.100000)"
       fill="red" stroke="none">
        <path d="M113 305 c-36 -15 -63 -60 -63 -102 0 -30 93 -193 110 -193 17 0 110
163 110 193 0 43 -28 87 -65 103 -42 17 -51 17 -92 -1z m87 -60 c29 -35 4 -95
-40 -95 -28 0 -52 25 -52 53 0 36 19 57 52 57 15 0 33 -7 40 -15z"/>
    </g>

    <g id="education">
        <g clip-path="url(#clip0_1_262)">
            <path d="M12.7636 11.272L9.25 14.6259L5.73638 11.272C3.10301 11.381 1 13.4376 1 15.9759V16.3134C1 17.245 1.79185 18.0009 2.76786 18.0009H15.7321C16.7081 18.0009 17.5 17.245 17.5 16.3134V15.9759C17.5 13.4376 15.397 11.381 12.7636 11.272ZM1.50089 2.80635L1.73661 2.85909V4.91221C1.47879 5.05987 1.29464 5.31651 1.29464 5.62589C1.29464 5.9212 1.46406 6.16729 1.70346 6.31846L1.12891 8.5087C1.06629 8.75128 1.20625 9.00089 1.40882 9.00089H2.94833C3.15089 9.00089 3.29085 8.75128 3.22824 8.5087L2.65368 6.31846C2.89308 6.16729 3.0625 5.9212 3.0625 5.62589C3.0625 5.31651 2.87835 5.05987 2.62054 4.91221V3.06299L5.05134 3.62198C4.7346 4.22667 4.53571 4.90167 4.53571 5.62589C4.53571 8.11143 6.64609 10.1259 9.25 10.1259C11.8539 10.1259 13.9643 8.11143 13.9643 5.62589C13.9643 4.90167 13.7691 4.22667 13.4487 3.62198L16.9954 2.80635C17.6657 2.65166 17.6657 1.85362 16.9954 1.69893L9.98292 0.0817384C9.50413 -0.0272461 8.99955 -0.0272461 8.52076 0.0817384L1.50089 1.69541C0.834263 1.8501 0.834263 2.65166 1.50089 2.80635Z" fill="#767676"/>
        </g>
        <defs>
            <clipPath id="clip0_1_262">
                <rect width="18" height="18" fill="white"/>
            </clipPath>
        </defs>
    </g>

    <g id="phone" >
        <path fill-rule="evenodd" clip-rule="evenodd" d="M8.379 10.544c.73-.733 1.432-1.435 2.165-2.165.932-.992 1.105-1.912.671-2.234l-.889-.513a1.163 1.163 0 01-.425-1.588l1.334-2.312a1.163 1.163 0 011.589-.425l.889.513c2.884 1.665-.464 7.013-1.864 8.413l-1.616 1.616c-1.4 1.4-6.748 4.748-8.413 1.864l-.513-.89a1.163 1.163 0 01.425-1.588L4.044 9.9a1.163 1.163 0 011.588.425l.514.89c.321.433 1.24.26 2.233-.672z" fill="green"></path>
    </g>

    <g id="insta">
        <path fill-rule="evenodd" clip-rule="evenodd" d="M8.02703 16.5C8.02703 11.8205 11.8205 8.02703 16.5 8.02703C21.1795 8.02703 24.973 11.8205 24.973 16.5C24.973 21.1795 21.1795 24.973 16.5 24.973C11.8205 24.973 8.02703 21.1795 8.02703 16.5ZM16.5 22C13.4624 22 11 19.5376 11 16.5C11 13.4624 13.4624 11 16.5 11C19.5376 11 22 13.4624 22 16.5C22 19.5376 19.5376 22 16.5 22Z" fill="url(#paint0_linear_11_4995)"/>
        <path fill-rule="evenodd" clip-rule="evenodd" d="M8.02703 16.5C8.02703 11.8205 11.8205 8.02703 16.5 8.02703C21.1795 8.02703 24.973 11.8205 24.973 16.5C24.973 21.1795 21.1795 24.973 16.5 24.973C11.8205 24.973 8.02703 21.1795 8.02703 16.5ZM16.5 22C13.4624 22 11 19.5376 11 16.5C11 13.4624 13.4624 11 16.5 11C19.5376 11 22 13.4624 22 16.5C22 19.5376 19.5376 22 16.5 22Z" fill="url(#paint1_radial_11_4995)"/>
        <path d="M25.3077 9.67225C26.4013 9.67225 27.2878 8.78581 27.2878 7.69228C27.2878 6.59874 26.4013 5.71224 25.3077 5.71224C24.2143 5.71224 23.3278 6.59874 23.3278 7.69228C23.3278 8.78581 24.2143 9.67225 25.3077 9.67225Z" fill="url(#paint2_linear_11_4995)"/>
        <path d="M25.3077 9.67225C26.4013 9.67225 27.2878 8.78581 27.2878 7.69228C27.2878 6.59874 26.4013 5.71224 25.3077 5.71224C24.2143 5.71224 23.3278 6.59874 23.3278 7.69228C23.3278 8.78581 24.2143 9.67225 25.3077 9.67225Z" fill="url(#paint3_radial_11_4995)"/>
        <path fill-rule="evenodd" clip-rule="evenodd" d="M16.5 0C12.0189 0 11.457 0.0189941 9.69707 0.0992932C7.94084 0.179396 6.74139 0.458347 5.69187 0.866261C4.60685 1.28786 3.68669 1.85205 2.76934 2.76934C1.85205 3.68669 1.28786 4.60685 0.866261 5.69187C0.458347 6.74139 0.179396 7.94084 0.0992932 9.69707C0.0189941 11.457 0 12.0189 0 16.5C0 20.9811 0.0189941 21.543 0.0992932 23.3029C0.179396 25.0592 0.458347 26.2586 0.866261 27.3081C1.28786 28.3931 1.85205 29.3133 2.76934 30.2307C3.68669 31.1479 4.60685 31.7121 5.69187 32.1338C6.74139 32.5417 7.94084 32.8206 9.69707 32.9007C11.457 32.981 12.0189 33 16.5 33C20.9811 33 21.543 32.981 23.3029 32.9007C25.0592 32.8206 26.2586 32.5417 27.3081 32.1338C28.3931 31.7121 29.3133 31.1479 30.2307 30.2307C31.1479 29.3133 31.7121 28.3931 32.1338 27.3081C32.5417 26.2586 32.8206 25.0592 32.9007 23.3029C32.981 21.543 33 20.9811 33 16.5C33 12.0189 32.981 11.457 32.9007 9.69707C32.8206 7.94084 32.5417 6.74139 32.1338 5.69187C31.7121 4.60685 31.1479 3.68669 30.2307 2.76934C29.3133 1.85205 28.3931 1.28786 27.3081 0.866261C26.2586 0.458347 25.0592 0.179396 23.3029 0.0992932C21.543 0.0189941 20.9811 0 16.5 0ZM16.5 2.97297C20.9057 2.97297 21.4276 2.9898 23.1674 3.06918C24.7762 3.14254 25.6498 3.41134 26.2312 3.6373C27.0014 3.93662 27.5511 4.29417 28.1284 4.87159C28.7058 5.44895 29.0634 5.99859 29.3627 6.76877C29.5887 7.35019 29.8575 8.22385 29.9308 9.83258C30.0102 11.5724 30.027 12.0943 30.027 16.5C30.027 20.9057 30.0102 21.4276 29.9308 23.1674C29.8575 24.7761 29.5887 25.6498 29.3627 26.2312C29.0634 27.0014 28.7058 27.5511 28.1284 28.1284C27.5511 28.7058 27.0014 29.0634 26.2312 29.3627C25.6498 29.5887 24.7762 29.8575 23.1674 29.9308C21.4278 30.0102 20.906 30.027 16.5 30.027C12.094 30.027 11.5723 30.0102 9.83259 29.9308C8.22385 29.8575 7.35019 29.5887 6.76878 29.3627C5.9986 29.0634 5.44895 28.7058 4.87159 28.1284C4.29424 27.5511 3.93663 27.0014 3.63731 26.2312C3.41134 25.6498 3.14254 24.7761 3.06919 23.1674C2.9898 21.4276 2.97297 20.9057 2.97297 16.5C2.97297 12.0943 2.9898 11.5724 3.06919 9.83258C3.14254 8.22385 3.41134 7.35019 3.63731 6.76877C3.93663 5.99859 4.29417 5.44895 4.87159 4.87159C5.44895 4.29417 5.9986 3.93662 6.76878 3.6373C7.35019 3.41134 8.22385 3.14254 9.83259 3.06918C11.5724 2.9898 12.0943 2.97297 16.5 2.97297Z" fill="url(#paint4_linear_11_4995)"/>
        <path fill-rule="evenodd" clip-rule="evenodd" d="M16.5 0C12.0189 0 11.457 0.0189941 9.69707 0.0992932C7.94084 0.179396 6.74139 0.458347 5.69187 0.866261C4.60685 1.28786 3.68669 1.85205 2.76934 2.76934C1.85205 3.68669 1.28786 4.60685 0.866261 5.69187C0.458347 6.74139 0.179396 7.94084 0.0992932 9.69707C0.0189941 11.457 0 12.0189 0 16.5C0 20.9811 0.0189941 21.543 0.0992932 23.3029C0.179396 25.0592 0.458347 26.2586 0.866261 27.3081C1.28786 28.3931 1.85205 29.3133 2.76934 30.2307C3.68669 31.1479 4.60685 31.7121 5.69187 32.1338C6.74139 32.5417 7.94084 32.8206 9.69707 32.9007C11.457 32.981 12.0189 33 16.5 33C20.9811 33 21.543 32.981 23.3029 32.9007C25.0592 32.8206 26.2586 32.5417 27.3081 32.1338C28.3931 31.7121 29.3133 31.1479 30.2307 30.2307C31.1479 29.3133 31.7121 28.3931 32.1338 27.3081C32.5417 26.2586 32.8206 25.0592 32.9007 23.3029C32.981 21.543 33 20.9811 33 16.5C33 12.0189 32.981 11.457 32.9007 9.69707C32.8206 7.94084 32.5417 6.74139 32.1338 5.69187C31.7121 4.60685 31.1479 3.68669 30.2307 2.76934C29.3133 1.85205 28.3931 1.28786 27.3081 0.866261C26.2586 0.458347 25.0592 0.179396 23.3029 0.0992932C21.543 0.0189941 20.9811 0 16.5 0ZM16.5 2.97297C20.9057 2.97297 21.4276 2.9898 23.1674 3.06918C24.7762 3.14254 25.6498 3.41134 26.2312 3.6373C27.0014 3.93662 27.5511 4.29417 28.1284 4.87159C28.7058 5.44895 29.0634 5.99859 29.3627 6.76877C29.5887 7.35019 29.8575 8.22385 29.9308 9.83258C30.0102 11.5724 30.027 12.0943 30.027 16.5C30.027 20.9057 30.0102 21.4276 29.9308 23.1674C29.8575 24.7761 29.5887 25.6498 29.3627 26.2312C29.0634 27.0014 28.7058 27.5511 28.1284 28.1284C27.5511 28.7058 27.0014 29.0634 26.2312 29.3627C25.6498 29.5887 24.7762 29.8575 23.1674 29.9308C21.4278 30.0102 20.906 30.027 16.5 30.027C12.094 30.027 11.5723 30.0102 9.83259 29.9308C8.22385 29.8575 7.35019 29.5887 6.76878 29.3627C5.9986 29.0634 5.44895 28.7058 4.87159 28.1284C4.29424 27.5511 3.93663 27.0014 3.63731 26.2312C3.41134 25.6498 3.14254 24.7761 3.06919 23.1674C2.9898 21.4276 2.97297 20.9057 2.97297 16.5C2.97297 12.0943 2.9898 11.5724 3.06919 9.83258C3.14254 8.22385 3.41134 7.35019 3.63731 6.76877C3.93663 5.99859 4.29417 5.44895 4.87159 4.87159C5.44895 4.29417 5.9986 3.93662 6.76878 3.6373C7.35019 3.41134 8.22385 3.14254 9.83259 3.06918C11.5724 2.9898 12.0943 2.97297 16.5 2.97297Z" fill="url(#paint5_radial_11_4995)"/>
        <defs>
            <linearGradient id="paint0_linear_11_4995" x1="1.92545" y1="1.73491" x2="12.3301" y2="41.9812" gradientUnits="userSpaceOnUse">
                <stop stop-color="#4E60D3"/>
                <stop offset="0.142763" stop-color="#913BAF"/>
                <stop offset="0.761458" stop-color="#D52D88"/>
                <stop offset="1" stop-color="#F26D4F"/>
            </linearGradient>
            <radialGradient id="paint1_radial_11_4995" cx="0" cy="0" r="1" gradientUnits="userSpaceOnUse" gradientTransform="translate(9.99053 33) rotate(32.1601) scale(30.8202 22.1803)">
                <stop stop-color="#FED276"/>
                <stop offset="0.17024" stop-color="#FDBD61" stop-opacity="0.975006"/>
                <stop offset="0.454081" stop-color="#F6804D"/>
                <stop offset="1" stop-color="#E83D5C" stop-opacity="0.01"/>
            </radialGradient>
            <linearGradient id="paint2_linear_11_4995" x1="1.92545" y1="1.73491" x2="12.3301" y2="41.9812" gradientUnits="userSpaceOnUse">
                <stop stop-color="#4E60D3"/>
                <stop offset="0.142763" stop-color="#913BAF"/>
                <stop offset="0.761458" stop-color="#D52D88"/>
                <stop offset="1" stop-color="#F26D4F"/>
            </linearGradient>
            <radialGradient id="paint3_radial_11_4995" cx="0" cy="0" r="1" gradientUnits="userSpaceOnUse" gradientTransform="translate(9.99053 33) rotate(32.1601) scale(30.8202 22.1803)">
                <stop stop-color="#FED276"/>
                <stop offset="0.17024" stop-color="#FDBD61" stop-opacity="0.975006"/>
                <stop offset="0.454081" stop-color="#F6804D"/>
                <stop offset="1" stop-color="#E83D5C" stop-opacity="0.01"/>
            </radialGradient>
            <linearGradient id="paint4_linear_11_4995" x1="1.92545" y1="1.73491" x2="12.3301" y2="41.9812" gradientUnits="userSpaceOnUse">
                <stop stop-color="#4E60D3"/>
                <stop offset="0.142763" stop-color="#913BAF"/>
                <stop offset="0.761458" stop-color="#D52D88"/>
                <stop offset="1" stop-color="#F26D4F"/>
            </linearGradient>
            <radialGradient id="paint5_radial_11_4995" cx="0" cy="0" r="1" gradientUnits="userSpaceOnUse" gradientTransform="translate(9.99053 33) rotate(32.1601) scale(30.8202 22.1803)">
                <stop stop-color="#FED276"/>
                <stop offset="0.17024" stop-color="#FDBD61" stop-opacity="0.975006"/>
                <stop offset="0.454081" stop-color="#F6804D"/>
                <stop offset="1" stop-color="#E83D5C" stop-opacity="0.01"/>
            </radialGradient>
        </defs>
    </g>

    <g id="whatsApp">
        <path d="M11.1896 8.82463C11.4732 8.83655 11.787 8.8502 12.0851 9.53081C12.2888 9.99609 12.6316 10.8635 12.9048 11.5548C13.1061 12.0642 13.2696 12.4779 13.3118 12.5646C13.4113 12.769 13.4776 13.0077 13.3449 13.2806C13.3251 13.3214 13.3067 13.3599 13.2892 13.3967C13.1895 13.6057 13.1162 13.7592 12.9474 13.9622C12.8812 14.0415 12.8128 14.127 12.7444 14.2124C12.6071 14.384 12.4697 14.5557 12.3504 14.6779C12.1508 14.8817 11.9435 15.1031 12.1757 15.5118C12.4079 15.921 13.2065 17.2589 14.3894 18.3421C15.6602 19.5059 16.7642 19.9982 17.3248 20.2481C17.4349 20.2972 17.524 20.337 17.5894 20.3706C17.9874 20.575 18.2195 20.541 18.4516 20.2678C18.6838 19.9953 19.446 19.0749 19.7113 18.6661C19.9766 18.257 20.2419 18.3251 20.6067 18.4613C20.9715 18.5976 22.9278 19.5865 23.3258 19.7909C23.4034 19.8307 23.4759 19.8667 23.5432 19.9C23.8209 20.0377 24.0084 20.1307 24.0885 20.2678C24.188 20.4388 24.188 21.2567 23.8564 22.211C23.5248 23.1654 21.9001 24.0858 21.1705 24.1539C21.1003 24.1605 21.0305 24.1689 20.9587 24.1776C20.2844 24.259 19.4334 24.3618 16.3954 23.1313C12.6573 21.6172 10.1926 17.865 9.68339 17.0899C9.64164 17.0263 9.61303 16.9827 9.59795 16.9621L9.59352 16.956C9.37895 16.6615 7.97312 14.7317 7.97312 12.735C7.97312 10.8527 8.87389 9.86609 9.28834 9.41214C9.31666 9.38111 9.34271 9.35258 9.36605 9.32642C9.73058 8.91741 10.1618 8.81506 10.427 8.81506C10.4416 8.81506 10.4561 8.81506 10.4707 8.81506C10.7212 8.81502 10.9705 8.81499 11.1896 8.82463Z" fill="url(#paint0_linear_11_4996)"/>
        <path fill-rule="evenodd" clip-rule="evenodd" d="M2.28113 24.519C0.867471 22.044 0.128514 19.239 0.128514 16.335C0.128514 7.326 7.29317 0 16.0643 0C20.3374 0 24.3213 1.716 27.3414 4.785C30.3293 7.887 32 11.979 32 16.368C32 25.377 24.8353 32.703 16.0643 32.703C13.3976 32.703 10.7631 32.043 8.4498 30.723L0 33L2.28113 24.519ZM4.8514 23.595L5.17269 24.09L3.82329 29.106L8.83534 27.753L9.31727 28.05C11.3414 29.304 13.6867 29.964 16.0643 29.964C23.3574 29.964 29.3012 23.859 29.3012 16.368C29.3012 12.738 27.9197 9.306 25.4137 6.732C22.9398 4.191 19.5984 2.772 16.0643 2.772C8.77108 2.772 2.82731 8.844 2.82731 16.368C2.82731 18.909 3.53414 21.417 4.8514 23.595Z" fill="url(#paint1_linear_11_4996)"/>
        <defs>
            <linearGradient id="paint0_linear_11_4996" x1="0" y1="16.5018" x2="32" y2="16.5018" gradientUnits="userSpaceOnUse">
                <stop stop-color="#20B038"/>
                <stop offset="1" stop-color="#60D66A"/>
            </linearGradient>
            <linearGradient id="paint1_linear_11_4996" x1="0" y1="16.5018" x2="32" y2="16.5018" gradientUnits="userSpaceOnUse">
                <stop stop-color="#20B038"/>
                <stop offset="1" stop-color="#60D66A"/>
            </linearGradient>
        </defs>
    </g>

    <g id="telega">
        <g filter="url(#filter0_d_11_4997)">
            <path d="M20.5118 33.0642C29.618 33.0642 37 25.6822 37 16.576C37 7.46989 29.618 0.0878906 20.5118 0.0878906C11.4057 0.0878906 4.02368 7.46989 4.02368 16.576C4.02368 25.6822 11.4057 33.0642 20.5118 33.0642Z" fill="url(#paint0_linear_11_4997)"/>
            <path fill-rule="evenodd" clip-rule="evenodd" d="M11.4872 16.4019C16.2938 14.3077 19.499 12.9271 21.1027 12.2601C25.6816 10.3556 26.6331 10.0247 27.2532 10.0138C27.3896 10.0114 27.6946 10.0452 27.8922 10.2055C28.059 10.3408 28.1049 10.5237 28.1268 10.652C28.1488 10.7803 28.1761 11.0727 28.1544 11.3011C27.9063 13.9083 26.8326 20.2352 26.2864 23.1552C26.0552 24.3908 25.6001 24.8051 25.1596 24.8457C24.2021 24.9338 23.475 24.2129 22.5476 23.605C21.0964 22.6537 20.2766 22.0615 18.868 21.1333C17.2401 20.0605 18.2954 19.4709 19.2231 18.5073C19.4659 18.2552 23.6847 14.4179 23.7663 14.0698C23.7765 14.0262 23.786 13.864 23.6896 13.7783C23.5932 13.6926 23.4509 13.7219 23.3482 13.7452C23.2027 13.7782 20.8844 15.3105 16.3934 18.342C15.7354 18.7939 15.1394 19.0141 14.6054 19.0025C14.0166 18.9898 12.8842 18.6697 12.0423 18.396C11.0098 18.0603 10.1891 17.8829 10.2606 17.3129C10.2978 17.0159 10.7067 16.7123 11.4872 16.4019Z" fill="white"/>
        </g>
        <defs>
            <filter id="filter0_d_11_4997" x="0.0236816" y="0.0878906" width="40.9763" height="40.9763" filterUnits="userSpaceOnUse" color-interpolation-filters="sRGB">
                <feFlood flood-opacity="0" result="BackgroundImageFix"/>
                <feColorMatrix in="SourceAlpha" type="matrix" values="0 0 0 0 0 0 0 0 0 0 0 0 0 0 0 0 0 0 127 0" result="hardAlpha"/>
                <feOffset dy="4"/>
                <feGaussianBlur stdDeviation="2"/>
                <feComposite in2="hardAlpha" operator="out"/>
                <feColorMatrix type="matrix" values="0 0 0 0 0 0 0 0 0 0 0 0 0 0 0 0 0 0 0.25 0"/>
                <feBlend mode="normal" in2="BackgroundImageFix" result="effect1_dropShadow_11_4997"/>
                <feBlend mode="normal" in="SourceGraphic" in2="effect1_dropShadow_11_4997" result="shape"/>
            </filter>
            <linearGradient id="paint0_linear_11_4997" x1="20.5118" y1="0.0878906" x2="20.5118" y2="32.8196" gradientUnits="userSpaceOnUse">
                <stop stop-color="#2AABEE"/>
                <stop offset="1" stop-color="#229ED9"/>
            </linearGradient>
        </defs>
    </g>
</svg>